<?xml version="1.0" encoding="utf-8"?>
<!-- Generator: Adobe Illustrator 23.0.1, SVG Export Plug-In . SVG Version: 6.00 Build 0)  -->
<svg version="1.1" id="Layer_1" xmlns="http://www.w3.org/2000/svg" xmlns:xlink="http://www.w3.org/1999/xlink" x="0px" y="0px"
	 viewBox="0 0 80 29" style="enable-background:new 0 0 80 29;" xml:space="preserve">
<style type="text/css">
	.st0{fill-rule:evenodd;clip-rule:evenodd;fill:#FFFFFF;}
	.st1{fill-rule:evenodd;clip-rule:evenodd;fill:#FFB73D;}
	.st2{fill-rule:evenodd;clip-rule:evenodd;fill:#1BE6A6;}
	.st3{fill-rule:evenodd;clip-rule:evenodd;fill:#FB73BE;}
	.st4{fill-rule:evenodd;clip-rule:evenodd;fill:#76B1FF;}
	.st5{fill-rule:evenodd;clip-rule:evenodd;fill:#25CED8;}
	.st6{opacity:0.6155;fill-rule:evenodd;clip-rule:evenodd;fill:#D2DAFF;enable-background:new    ;}
</style>
<title>Syngenta Logo NEW</title>
<desc>Created with Sketch.</desc>
<g id="Syngenta-Logo-NEW">
	<g id="Syngenta-Logogrey">
		<path id="Syngenta-Logo" class="st0" d="M67.9,10.3v3h2.7v1.9h-2.7v4.4c0,1.2,0.7,1.5,1.6,1.5c0.3,0,0.6,0,1-0.1l0.2,2
			c-0.7,0.1-1.7,0.2-2.3,0.2c-1.9,0-3.5-0.6-3.5-2.9v-5.1h-1.6v-1.9h1.6v-2.1L67.9,10.3z M59.1,13c2,0,3.1,1.2,3.1,3v6.9h-3.1v-6.2
			c0-0.9-0.4-1.4-1.5-1.4c-0.8,0-1.3,0.4-1.9,0.8v6.8h-3.1v-9.7h3v0.9C56.7,13.4,57.9,13,59.1,13z M40.2,12.6c-0.5,0-1.4,0-1.8,0.3
			c-0.2-0.7-0.3-1.4-0.3-2.1c0-1.2,0.3-2.3,1.2-3.2c1.7-1.7,4.9-2.2,7-2.5c-1.6,2.6-0.9,4.9-2.4,6.4C42.6,12.6,41.5,12.6,40.2,12.6z
			 M26.4,13c2,0,3.1,1.2,3.1,3v6.9h-3.1v-6.2c0-0.9-0.4-1.4-1.5-1.4c-0.8,0-1.3,0.4-1.9,0.8v6.8h-3.1v-9.7h3v0.9
			C24,13.4,25.1,13,26.4,13z M14.7,18l1.9-4.7h2.9l-5,11.7c-0.8,1.8-2.3,3.1-4.4,3.1c-1,0-1.6-0.1-2.3-0.3l0.4-1.9
			C8.8,26,9.2,26,9.6,26c1.2,0,1.9-1,2.5-2.4l0.3-0.7l-3.9-9.7h3.3l1.8,4.8c0.2,0.6,0.3,1.2,0.4,1.6C14.2,19.2,14.5,18.5,14.7,18z
			 M5.9,16.8c1.3,0.3,2.6,1,2.6,3c0,2.1-2,3.3-4.4,3.3c-1.6,0-2.8-0.3-4.1-0.8l0.8-2C1.6,20.7,2.8,21,3.7,21c0.7,0,1.7-0.1,1.7-0.9
			c0-0.4-0.3-0.6-0.7-0.7c-0.6-0.2-1.5-0.3-2.1-0.5c-1.3-0.3-2.3-1-2.3-2.8c0-2,1.7-3.2,4.1-3.2C6,12.8,7,13,7.9,13.3l-0.8,2
			c-0.4-0.2-1.5-0.4-2.3-0.4c-0.9,0-1.4,0.3-1.4,0.8c0,0.3,0.2,0.6,0.6,0.7C4.5,16.5,5.3,16.6,5.9,16.8z M77,20.3v-1.8
			c-1.4,0-2.8,0.1-2.8,1.4c0,0.8,0.7,1.1,1.3,1.1C76.1,21.1,76.6,20.8,77,20.3z M76.1,13c2.4,0,3.9,1.1,3.9,3v6.9h-2.9v-0.8
			c-0.8,0.7-1.7,1-2.8,1c-1.9,0-3.1-0.9-3.1-2.7c0-3.2,3.3-3.7,5.9-3.7v-0.3c0-0.8-0.3-1.4-1.8-1.4c-1,0-2.1,0.5-2.9,0.9l-0.8-1.8
			C72.9,13.5,74.5,13,76.1,13z M48.1,16.8c0.1-1.1-0.5-1.7-1.6-1.7c-1,0-1.7,0.7-1.8,1.7H48.1z M46.6,13c3.4,0,4.6,1.9,4.6,4.7
			c0,0.3,0,0.7,0,1h-6.6c0,1.4,0.7,2.2,2.9,2.2c0.9,0,2.1-0.4,2.5-0.7l0.8,1.8c-1.4,0.7-2.8,1.1-4.5,1.1c-3.1,0-5-1.9-5-5
			C41.4,15,43.9,13,46.6,13z M35.7,26.2c1.4,0,2.5-0.6,2.5-1.7c0-0.8-0.6-1.1-1.3-1.1h-2.7c-0.4,0.2-1.1,0.7-1.1,1.4
			C33.1,25.7,34.3,26.2,35.7,26.2z M35.9,14.7c-0.9,0-1.5,0.8-1.5,1.5c0,0.8,0.5,1.5,1.5,1.5c1,0,1.5-0.7,1.5-1.5
			C37.4,15.4,36.9,14.7,35.9,14.7z M37.6,20.9c2.3,0,3.7,1.1,3.7,3.2c0,2.8-2.9,4.1-5.8,4.1c-2.5,0-4.9-0.7-4.9-3
			c0-1.1,1-1.8,1.6-2.2c-0.3-0.2-0.6-0.3-0.9-0.6c-0.3-0.3-0.5-0.8-0.5-1.5c0-0.9,0.9-1.8,1.9-2.4c-0.6-0.3-1.3-0.8-1.3-2.4
			c0-2.1,2-3.2,4.6-3.2c2.2,0,4.4,0.5,4.4,3.1c0,2.4-2.3,3.3-4.7,3.3c-0.4,0-0.8-0.1-1.2-0.1c-0.3,0.1-0.8,0.5-0.8,0.8
			c0,0.7,1,0.9,1.5,0.9H37.6z"/>
		<path id="Fill-5" class="st1" d="M32.4,10.5c0,0.7-0.5,1.2-1.2,1.2c-0.7,0-1.2-0.5-1.2-1.2c0-0.7,0.5-1.2,1.2-1.2
			C31.9,9.3,32.4,9.8,32.4,10.5z"/>
		<path id="Fill-6" class="st2" d="M35.8,9.3c0,0.5-0.4,0.9-0.9,0.9c-0.5,0-0.9-0.4-0.9-0.9c0-0.5,0.4-0.9,0.9-0.9
			C35.4,8.4,35.8,8.8,35.8,9.3z"/>
		<path id="Fill-7" class="st3" d="M33.3,3.1c0,1.2-1,2.1-2.1,2.1S29,4.3,29,3.1S30,1,31.1,1S33.3,2,33.3,3.1z"/>
		<path id="Fill-8" class="st4" d="M38.4,4.7c0,0.4-0.3,0.7-0.7,0.7c-0.4,0-0.7-0.3-0.7-0.7C37,4.3,37.3,4,37.7,4
			C38.1,4,38.4,4.3,38.4,4.7z"/>
		<path id="Fill-9" class="st5" d="M43.9,2c0,1.1-0.9,2-2,2c-1.1,0-2-0.9-2-2c0-1.1,0.9-2,2-2C43.1,0,43.9,0.9,43.9,2z"/>
		<path id="Path-2" class="st6" d="M38.4,12.9c1-2,1.9-3.5,2.8-4.3c0.9-0.9,2.6-2,5.1-3.6c-0.3,0.4-0.7,1.3-1,2.5
			c-0.2,0.9-0.4,2.8-1.5,4c-1.1,1.1-2.2,1.1-3.3,1.1C39.4,12.5,38.7,12.7,38.4,12.9z"/>
	</g>
</g>
</svg>
