<?xml version="1.0" encoding="UTF-8"?>
<svg width="80px" height="29px" viewBox="0 0 80 29" version="1.1" xmlns="http://www.w3.org/2000/svg" xmlns:xlink="http://www.w3.org/1999/xlink">
    <!-- Generator: Sketch 52.4 (67378) - http://www.bohemiancoding.com/sketch -->
    <title>Syngenta Logo NEW</title>
    <desc>Created with Sketch.</desc>
    <g id="Syngenta-Logo-NEW" stroke="none" stroke-width="1" fill="none" fill-rule="evenodd">
        <g id="Syngenta-Logogrey">
            <path d="M67.8508266,10.256936 L67.8508266,13.2372941 L70.5741169,13.2372941 L70.5741169,15.1684761 L67.8508266,15.1684761 L67.8508266,19.5387311 C67.8508266,20.7845842 68.5281599,21.0162503 69.4029461,21.0162503 C69.7063093,21.0162503 70.0308135,20.974383 70.3625016,20.9306216 L70.5741169,22.8891171 C69.8615828,23.0124264 68.9091085,23.1172942 68.2882197,23.1172942 C66.4185745,23.1172942 64.7534635,22.4814087 64.7534635,20.248682 L64.7534635,15.1684761 L63.1801004,15.1684761 L63.1801004,13.2372941 L64.7534635,13.2372941 L64.7534635,11.1094352 L67.8508266,10.256936 Z M59.1092554,13.0118882 C61.0848109,13.0118882 62.2347381,14.202915 62.2347381,16.0196596 L62.2347381,22.91661 L59.1374776,22.91661 L59.1374776,16.7021973 C59.1374776,15.7873954 58.7424692,15.2815978 57.6770034,15.2815978 C56.8727214,15.2815978 56.3576402,15.6572078 55.7792386,16.105388 L55.7792386,22.91661 L52.674897,22.91661 L52.674897,13.2373739 L55.6874907,13.2373739 L55.6874907,14.0898732 C56.6963068,13.4305619 57.8534179,13.0118882 59.1092554,13.0118882 Z M40.1516611,12.5616446 C39.6789645,12.5616446 38.7759561,12.6020167 38.3949048,12.8692701 C38.1762083,12.1881279 38.0774818,11.4384031 38.0774818,10.7229696 C38.0774818,9.49555802 38.3596014,8.40391635 39.2697937,7.52191056 C41.0124901,5.83126654 44.166195,5.29466649 46.2899428,5 C44.716477,7.57952802 45.4007889,9.91572692 43.8627292,11.4049092 C42.6351139,12.6020167 41.4922679,12.5616446 40.1516611,12.5616446 Z M26.3656604,13.0118882 C28.3412159,13.0118882 29.4911431,14.202915 29.4911431,16.0196596 L29.4911431,22.91661 L26.3938827,22.91661 L26.3938827,16.7021973 C26.3938827,15.7873954 25.9987716,15.2815978 24.9334084,15.2815978 C24.1362076,15.2815978 23.6140452,15.6572078 23.035541,16.105388 L23.035541,22.91661 L19.9382806,22.91661 L19.9382806,13.2373739 L22.950977,13.2373739 L22.950977,14.0898732 C23.9597931,13.4305619 25.1169041,13.0118882 26.3656604,13.0118882 Z M14.6821023,17.9501936 L16.5517475,13.2373241 L19.4443712,13.2373241 L14.4774656,24.9621796 C13.7154656,26.7624762 12.1844871,28.0843884 10.0961454,28.0843884 C9.05202587,28.0843884 8.49456004,27.9522071 7.81732937,27.8013849 L8.25472248,25.8695051 C8.80500447,25.9888271 9.22135919,26.0401645 9.59522665,26.0401645 C10.8439829,26.0401645 11.5071538,25.0115232 12.1139829,23.5990978 L12.4031837,22.9165601 L8.54392327,13.2373241 L11.8741453,13.2373241 L13.6872434,18.0352242 C13.9060426,18.6134923 14.0329913,19.2077098 14.1318203,19.6243897 C14.2446066,19.2043205 14.4634058,18.5073286 14.6821023,17.9501936 Z M5.89823888,16.7858124 C7.22468326,17.0675199 8.50166178,17.8034884 8.50166178,19.8230903 C8.50166178,21.9304142 6.49798673,23.0879472 4.1203416,23.0879472 C2.56811946,23.0879472 1.31936316,22.8363442 0,22.3223725 L0.846666622,20.363877 C1.62980759,20.6709044 2.75859379,21.0162104 3.68294849,21.0162104 C4.40256381,21.0162104 5.40440133,20.9305817 5.40440133,20.0793783 C5.40440133,19.6812396 5.15040135,19.4762889 4.67062359,19.3413165 C4.07795696,19.1714547 3.16786731,19.0185391 2.56811946,18.858845 C1.30520074,18.5203175 0.261081198,17.8761582 0.261081198,16.0765593 C0.261081198,14.0809813 2.01075626,12.8405112 4.40954239,12.8405112 C5.99696534,12.8405112 6.99890549,13.0426707 7.88785413,13.2948717 L7.09763195,15.2534669 C6.70960207,15.0794183 5.60903809,14.8272173 4.81881591,14.8272173 C3.96506807,14.8272173 3.38656386,15.1431165 3.38656386,15.6510075 C3.38656386,15.9025107 3.54881598,16.2191077 4.00037151,16.3609583 C4.48712785,16.5116809 5.25620902,16.6487466 5.89823888,16.7858124 Z M76.9943848,20.3343406 L76.9943848,18.545707 C75.5622354,18.5223809 74.21465,18.662836 74.21465,19.9930219 C74.21465,20.8168121 74.9343679,21.0731002 75.4775687,21.0731002 C76.1197012,21.0731002 76.6135388,20.7599921 76.9943848,20.3343406 Z M76.0843978,13.0118384 C78.4619403,13.0118384 80,14.114545 80,16.0484185 L80,22.9165601 L77.0790515,22.9165601 L77.0790515,22.1516833 C76.3242353,22.8035182 75.3365602,23.1173241 74.2499534,23.1173241 C72.3944707,23.1173241 71.1244708,22.2449877 71.1244708,20.4199693 C71.1244708,17.211434 74.4192868,16.7125146 76.9943848,16.7021474 L76.9943848,16.4445635 C76.9943848,15.6489839 76.6841456,15.0821795 75.2165902,15.0821795 C74.2216286,15.0821795 73.0928424,15.5604643 72.3521887,15.9915985 L71.5900861,14.2029649 C72.9093466,13.5086644 74.5391542,13.0118384 76.0843978,13.0118384 Z M48.0959699,16.7858124 C48.1524144,15.7187927 47.6021324,15.0540985 46.5227094,15.0540985 C45.4783846,15.0540985 44.8575984,15.7990385 44.6812865,16.7858124 L48.0959699,16.7858124 Z M46.6354957,13.0118683 C50.0433031,13.0118683 51.2849782,14.9416547 51.2849782,17.7233423 C51.2849782,18.0420327 51.277897,18.3743798 51.256756,18.7162966 L44.6529616,18.7162966 C44.6812865,20.124635 45.4007992,20.9592908 47.5173631,20.9592908 C48.448799,20.9592908 49.5775852,20.5467975 50.0573629,20.2205312 L50.8757047,22.0091648 C49.5140595,22.728785 48.0466067,23.117354 46.4027393,23.117354 C43.3053762,23.117354 41.3792866,21.1792938 41.3792866,18.0913764 C41.3792866,14.95262 43.9051241,13.0118683 46.6354957,13.0118683 Z M35.6645127,26.238875 C37.1108246,26.238875 38.1762904,25.5947157 38.1762904,24.5078589 C38.1762904,23.7176622 37.5270767,23.4284783 36.8640084,23.4284783 L34.1476966,23.4284783 C33.7314445,23.657453 33.0963933,24.1624531 33.0963933,24.8203688 C33.0963933,25.6693791 34.2746453,26.238875 35.6645127,26.238875 Z M35.8691495,14.7134875 C34.9308376,14.7134875 34.3522308,15.4865385 34.3522308,16.1896112 C34.3522308,17.0024361 34.8742905,17.6657348 35.812705,17.6657348 C36.8427648,17.6657348 37.357846,16.9983491 37.357846,16.1896112 C37.357846,15.3788796 36.8992092,14.7134875 35.8691495,14.7134875 Z M37.6259057,20.9031785 C39.8977432,20.9031785 41.2805294,21.974983 41.2805294,24.1103183 C41.2805294,26.9338732 38.3808245,28.2407331 35.5234016,28.2556857 C33.004748,28.2667506 30.5847182,27.5642761 30.5847182,25.2171119 C30.5847182,24.1199876 31.5794745,23.3860129 32.1863036,23.0029265 C31.8546155,22.816517 31.5442737,22.6690841 31.2831925,22.3793022 C31.0080515,22.0722748 30.7822738,21.6233969 30.7822738,20.8729742 C30.7822738,19.9286658 31.6430002,19.0528404 32.6872224,18.489525 C32.1087182,18.1941607 31.339637,17.7198633 31.339637,16.1327912 C31.339637,14.070026 33.3574744,12.9823717 35.9891196,12.9823717 C38.2256536,12.9823717 40.3704397,13.5019258 40.3704397,16.0484583 C40.3704397,18.4806531 38.0210168,19.3673441 35.6362905,19.3673441 C35.1918162,19.3673441 34.7967051,19.3015525 34.4086752,19.2275868 C34.1546752,19.3590703 33.6466752,19.6846389 33.6466752,20.0506793 C33.6466752,20.7942237 34.6908974,20.9031785 35.1706752,20.9031785 L37.6259057,20.9031785 Z" id="Syngenta-Logo" fill="#121958"></path>
            <path d="M32.3964247,10.4671605 C32.3964247,11.1287901 31.8600593,11.6652642 31.1979951,11.6652642 C30.5363654,11.6652642 30,11.1287901 30,10.4671605 C30,9.80520494 30.5363654,9.26873086 31.1979951,9.26873086 C31.8600593,9.26873086 32.3964247,9.80520494 32.3964247,10.4671605 Z" id="Fill-5" fill="#FFB73D"></path>
            <path d="M35.8190815,9.26873086 C35.8190815,9.74154074 35.4363358,10.124721 34.9635259,10.124721 C34.4908247,10.124721 34.1079704,9.74154074 34.1079704,9.26873086 C34.1079704,8.79635556 34.4908247,8.41317531 34.9635259,8.41317531 C35.4363358,8.41317531 35.8190815,8.79635556 35.8190815,9.26873086 Z" id="Fill-6" fill="#1BE6A6"></path>
            <path d="M33.2786469,3.13926914 C33.2786469,4.32075062 32.3208593,5.27853827 31.1393778,5.27853827 C29.9578963,5.27853827 29,4.32075062 29,3.13926914 C29,1.95778765 29.9578963,1 31.1393778,1 C32.3208593,1 33.2786469,1.95778765 33.2786469,3.13926914 Z" id="Fill-7" fill="#FB73BE"></path>
            <path d="M38.3691062,4.68444444 C38.3691062,5.06262716 38.0626272,5.36899753 37.6845531,5.36899753 C37.3063704,5.36899753 37,5.06262716 37,4.68444444 C37,4.30637037 37.3063704,4 37.6845531,4 C38.0626272,4 38.3691062,4.30637037 38.3691062,4.68444444 Z" id="Fill-8" fill="#76B1FF"></path>
            <path d="M43.9365333,1.9678321 C43.9365333,3.05512099 43.0555556,3.93609877 41.9682667,3.93609877 C40.8814123,3.93609877 40,3.05512099 40,1.9678321 C40,0.880977778 40.8814123,0 41.9682667,0 C43.0555556,0 43.9365333,0.880977778 43.9365333,1.9678321 Z" id="Fill-9" fill="#25CED8"></path>
            <path d="M38.3767567,12.8692701 C39.3276994,10.8450483 40.2566554,9.40614747 41.1636247,8.55256744 C42.0705939,7.69898742 43.7775143,6.51479827 46.2843858,5 C45.9567453,5.44675559 45.6243167,6.28861928 45.2871,7.52559109 C45.0391015,8.43529418 44.9255305,10.3684611 43.7873802,11.4844823 C42.6899045,12.5606197 41.5757923,12.5446602 40.5024495,12.5446602 C39.3650343,12.5446602 38.65647,12.6528635 38.3767567,12.8692701 Z" id="Path-2" fill="#D2DAFF" opacity="0.61546689"></path>
        </g>
    </g>
</svg>